<mxfile host="Electron" modified="2024-02-05T00:06:13.184Z" agent="Mozilla/5.0 (Windows NT 10.0; Win64; x64) AppleWebKit/537.36 (KHTML, like Gecko) draw.io/23.0.2 Chrome/120.0.6099.109 Electron/28.1.0 Safari/537.36" etag="ia5H7zxVhGLxc6_lzJXf" version="23.0.2" type="device">
  <diagram name="Página-1" id="SSiwArNgwb-8AplUlq2f">
    <mxGraphModel dx="2247" dy="830" grid="1" gridSize="10" guides="1" tooltips="1" connect="1" arrows="1" fold="1" page="1" pageScale="1" pageWidth="827" pageHeight="1169" background="#7EA6E0" math="0" shadow="0">
      <root>
        <mxCell id="0" />
        <mxCell id="1" parent="0" />
        <mxCell id="XSDj66iokUBeNGo2-PE7-1" value="6. Hacer una función que se llame “sumaResta” que reciba dos números y que&#xa;devuelva la suma Y la resta del primer número con el segundo.&#xa;Nota: recordemos que una función solo puede devolver UN valor por return.&#xa;Cómo podríamos hacer para tener ambos resultados en el main?" style="text;whiteSpace=wrap;html=1;fontSize=18;fontFamily=Comic Sans MS;fontStyle=1;fontColor=#050000;" vertex="1" parent="1">
          <mxGeometry width="750" height="110" as="geometry" />
        </mxCell>
        <mxCell id="XSDj66iokUBeNGo2-PE7-14" value="" style="shape=crossbar;whiteSpace=wrap;html=1;rounded=1;direction=south;hachureGap=4;fontFamily=Architects Daughter;fontSource=https%3A%2F%2Ffonts.googleapis.com%2Fcss%3Ffamily%3DArchitects%2BDaughter;fontSize=20;dashed=1;dashPattern=1 4;strokeColor=#990000;strokeWidth=3;" vertex="1" parent="1">
          <mxGeometry x="610" y="130" width="20" height="1050" as="geometry" />
        </mxCell>
        <mxCell id="XSDj66iokUBeNGo2-PE7-53" value="" style="group;aspect=fixed;" vertex="1" connectable="0" parent="1">
          <mxGeometry x="700" y="210" width="240" height="371" as="geometry" />
        </mxCell>
        <mxCell id="XSDj66iokUBeNGo2-PE7-10" value="" style="group;aspect=fixed;" vertex="1" connectable="0" parent="XSDj66iokUBeNGo2-PE7-53">
          <mxGeometry x="20" width="220" height="56.66" as="geometry" />
        </mxCell>
        <mxCell id="XSDj66iokUBeNGo2-PE7-11" value="" style="shape=hexagon;perimeter=hexagonPerimeter2;whiteSpace=wrap;html=1;fixedSize=1;rounded=0;labelBackgroundColor=none;strokeColor=#4f514d;strokeWidth=2;align=center;verticalAlign=middle;fontFamily=Helvetica;fontSize=12;fillColor=#d5e8d4;aspect=fixed;" vertex="1" parent="XSDj66iokUBeNGo2-PE7-10">
          <mxGeometry width="219.9818147933468" height="53.3289247983871" as="geometry" />
        </mxCell>
        <mxCell id="XSDj66iokUBeNGo2-PE7-12" value="" style="line;strokeWidth=2;html=1;rounded=0;labelBackgroundColor=none;align=center;verticalAlign=middle;fontFamily=Helvetica;fontSize=12;strokeColor=#252323;aspect=fixed;" vertex="1" parent="XSDj66iokUBeNGo2-PE7-10">
          <mxGeometry y="19.99875" width="219.9818147933468" height="13.332231199596775" as="geometry" />
        </mxCell>
        <mxCell id="XSDj66iokUBeNGo2-PE7-13" value="" style="line;strokeWidth=2;direction=south;html=1;rounded=0;labelBackgroundColor=none;strokeColor=#000000;align=center;verticalAlign=middle;fontFamily=Helvetica;fontSize=12;fontColor=default;fillColor=#d5e8d4;aspect=fixed;" vertex="1" parent="XSDj66iokUBeNGo2-PE7-10">
          <mxGeometry x="139.99999999999997" y="26.665" width="6.666115599798387" height="26.66446239919355" as="geometry" />
        </mxCell>
        <mxCell id="XSDj66iokUBeNGo2-PE7-35" value="int SumaResta" style="text;strokeColor=none;align=center;fillColor=none;html=1;verticalAlign=middle;whiteSpace=wrap;rounded=0;fontSize=20;fontFamily=Architects Daughter;fontStyle=1;fontColor=#0a0a0a;" vertex="1" parent="XSDj66iokUBeNGo2-PE7-10">
          <mxGeometry x="30" width="150" height="30" as="geometry" />
        </mxCell>
        <mxCell id="XSDj66iokUBeNGo2-PE7-36" value="int n1" style="text;strokeColor=none;align=center;fillColor=none;html=1;verticalAlign=middle;whiteSpace=wrap;rounded=0;fontSize=20;fontFamily=Architects Daughter;fontStyle=1;fontColor=#080808;" vertex="1" parent="XSDj66iokUBeNGo2-PE7-10">
          <mxGeometry x="47" y="25" width="60" height="30" as="geometry" />
        </mxCell>
        <mxCell id="XSDj66iokUBeNGo2-PE7-37" value="int n2" style="text;strokeColor=none;align=center;fillColor=none;html=1;verticalAlign=middle;whiteSpace=wrap;rounded=0;fontSize=20;fontFamily=Architects Daughter;fontStyle=1;fontColor=#000000;" vertex="1" parent="XSDj66iokUBeNGo2-PE7-10">
          <mxGeometry x="146.67000000000007" y="26.659999999999997" width="60" height="30" as="geometry" />
        </mxCell>
        <mxCell id="XSDj66iokUBeNGo2-PE7-19" value="" style="strokeWidth=2;html=1;shape=mxgraph.flowchart.start_2;whiteSpace=wrap;rounded=0;labelBackgroundColor=none;strokeColor=#000000;align=center;verticalAlign=middle;fontFamily=Helvetica;fontSize=12;fontColor=default;fillColor=#d5e8d4;container=1;aspect=fixed;" vertex="1" parent="XSDj66iokUBeNGo2-PE7-53">
          <mxGeometry x="97.42999999999995" y="320" width="55.14" height="51" as="geometry" />
        </mxCell>
        <mxCell id="XSDj66iokUBeNGo2-PE7-42" value="F" style="text;strokeColor=none;align=center;fillColor=none;html=1;verticalAlign=middle;whiteSpace=wrap;rounded=0;fontSize=20;fontFamily=Architects Daughter;fontStyle=1;fontColor=#000000;aspect=fixed;" vertex="1" parent="XSDj66iokUBeNGo2-PE7-19">
          <mxGeometry x="3.330000000000041" y="10.110000000000014" width="48.47" height="29.89" as="geometry" />
        </mxCell>
        <mxCell id="XSDj66iokUBeNGo2-PE7-20" value="" style="rounded=1;whiteSpace=wrap;html=1;absoluteArcSize=1;arcSize=14;strokeWidth=2;labelBackgroundColor=none;strokeColor=#0F140C;align=center;verticalAlign=middle;fontFamily=Helvetica;fontSize=12;fontColor=default;fillColor=#d5e8d4;" vertex="1" parent="XSDj66iokUBeNGo2-PE7-53">
          <mxGeometry x="37.5" y="90" width="185" height="50" as="geometry" />
        </mxCell>
        <mxCell id="XSDj66iokUBeNGo2-PE7-21" value="" style="rounded=1;whiteSpace=wrap;html=1;absoluteArcSize=1;arcSize=14;strokeWidth=2;labelBackgroundColor=none;strokeColor=#0F140C;align=center;verticalAlign=middle;fontFamily=Helvetica;fontSize=12;fontColor=default;fillColor=#d5e8d4;" vertex="1" parent="XSDj66iokUBeNGo2-PE7-53">
          <mxGeometry x="35" y="170" width="190" height="50" as="geometry" />
        </mxCell>
        <mxCell id="XSDj66iokUBeNGo2-PE7-22" value="" style="shape=hexagon;perimeter=hexagonPerimeter2;whiteSpace=wrap;html=1;fixedSize=1;rounded=0;labelBackgroundColor=none;strokeColor=#0F140C;strokeWidth=3;align=center;verticalAlign=middle;fontFamily=Helvetica;fontSize=12;fontColor=default;fillColor=#d5e8d4;" vertex="1" parent="XSDj66iokUBeNGo2-PE7-53">
          <mxGeometry x="30" y="250" width="200" height="50" as="geometry" />
        </mxCell>
        <mxCell id="XSDj66iokUBeNGo2-PE7-38" value="suma = n1 + n2" style="text;strokeColor=none;align=center;fillColor=none;html=1;verticalAlign=middle;whiteSpace=wrap;rounded=0;fontSize=20;fontFamily=Architects Daughter;fontStyle=1;fontColor=#0a0000;" vertex="1" parent="XSDj66iokUBeNGo2-PE7-53">
          <mxGeometry y="90" width="230" height="50" as="geometry" />
        </mxCell>
        <mxCell id="XSDj66iokUBeNGo2-PE7-39" value="n2 = n2 - n1" style="text;strokeColor=none;align=center;fillColor=none;html=1;verticalAlign=middle;whiteSpace=wrap;rounded=0;fontSize=20;fontFamily=Architects Daughter;fontStyle=1;fontColor=#000000;" vertex="1" parent="XSDj66iokUBeNGo2-PE7-53">
          <mxGeometry x="30" y="180" width="190" height="30" as="geometry" />
        </mxCell>
        <mxCell id="XSDj66iokUBeNGo2-PE7-41" value="return suma" style="text;strokeColor=none;align=center;fillColor=none;html=1;verticalAlign=middle;whiteSpace=wrap;rounded=0;fontSize=20;fontFamily=Architects Daughter;fontStyle=1;fontColor=#000000;" vertex="1" parent="XSDj66iokUBeNGo2-PE7-53">
          <mxGeometry x="30" y="260" width="210" height="30" as="geometry" />
        </mxCell>
        <mxCell id="XSDj66iokUBeNGo2-PE7-48" value="" style="line;strokeWidth=3;direction=south;html=1;hachureGap=4;fontFamily=Architects Daughter;fontSource=https://fonts.googleapis.com/css?family=Architects+Daughter;fontSize=20;strokeColor=#000000;" vertex="1" parent="XSDj66iokUBeNGo2-PE7-53">
          <mxGeometry x="120" y="50" width="10" height="40" as="geometry" />
        </mxCell>
        <mxCell id="XSDj66iokUBeNGo2-PE7-49" value="" style="line;strokeWidth=3;direction=south;html=1;hachureGap=4;fontFamily=Architects Daughter;fontSource=https://fonts.googleapis.com/css?family=Architects+Daughter;fontSize=20;strokeColor=#000000;" vertex="1" parent="XSDj66iokUBeNGo2-PE7-53">
          <mxGeometry x="120" y="140" width="10" height="30" as="geometry" />
        </mxCell>
        <mxCell id="XSDj66iokUBeNGo2-PE7-50" value="" style="line;strokeWidth=3;direction=south;html=1;hachureGap=4;fontFamily=Architects Daughter;fontSource=https://fonts.googleapis.com/css?family=Architects+Daughter;fontSize=20;strokeColor=#000000;" vertex="1" parent="XSDj66iokUBeNGo2-PE7-53">
          <mxGeometry x="120" y="217.72000000000003" width="10" height="32.28" as="geometry" />
        </mxCell>
        <mxCell id="XSDj66iokUBeNGo2-PE7-51" value="" style="line;strokeWidth=3;direction=south;html=1;hachureGap=4;fontFamily=Architects Daughter;fontSource=https://fonts.googleapis.com/css?family=Architects+Daughter;fontSize=20;strokeColor=#000000;" vertex="1" parent="XSDj66iokUBeNGo2-PE7-53">
          <mxGeometry x="120" y="300" width="10" height="20" as="geometry" />
        </mxCell>
        <mxCell id="XSDj66iokUBeNGo2-PE7-54" value="" style="group;aspect=fixed;" vertex="1" connectable="0" parent="1">
          <mxGeometry y="180" width="420.01" height="475" as="geometry" />
        </mxCell>
        <mxCell id="XSDj66iokUBeNGo2-PE7-2" value="" style="group;aspect=fixed;" vertex="1" connectable="0" parent="XSDj66iokUBeNGo2-PE7-54">
          <mxGeometry x="181.88" y="80" width="206.25" height="50" as="geometry" />
        </mxCell>
        <mxCell id="XSDj66iokUBeNGo2-PE7-3" value="" style="shape=hexagon;perimeter=hexagonPerimeter2;whiteSpace=wrap;html=1;fixedSize=1;rounded=0;labelBackgroundColor=none;strokeColor=#4f514d;strokeWidth=2;align=center;verticalAlign=middle;fontFamily=Helvetica;fontSize=12;fillColor=#d5e8d4;aspect=fixed;" vertex="1" parent="XSDj66iokUBeNGo2-PE7-2">
          <mxGeometry width="206.245841733871" height="49.99899193548387" as="geometry" />
        </mxCell>
        <mxCell id="XSDj66iokUBeNGo2-PE7-4" value="" style="line;strokeWidth=2;html=1;rounded=0;labelBackgroundColor=none;align=center;verticalAlign=middle;fontFamily=Helvetica;fontSize=12;strokeColor=#252323;aspect=fixed;" vertex="1" parent="XSDj66iokUBeNGo2-PE7-2">
          <mxGeometry y="18.75" width="206.245841733871" height="12.499747983870968" as="geometry" />
        </mxCell>
        <mxCell id="XSDj66iokUBeNGo2-PE7-5" value="" style="line;strokeWidth=2;direction=south;html=1;rounded=0;labelBackgroundColor=none;strokeColor=#000000;align=center;verticalAlign=middle;fontFamily=Helvetica;fontSize=12;fontColor=default;fillColor=#d5e8d4;aspect=fixed;" vertex="1" parent="XSDj66iokUBeNGo2-PE7-2">
          <mxGeometry x="131.24999999999997" y="24.999999999999996" width="6.249873991935484" height="24.999495967741936" as="geometry" />
        </mxCell>
        <mxCell id="XSDj66iokUBeNGo2-PE7-27" value="void main" style="text;strokeColor=none;align=center;fillColor=none;html=1;verticalAlign=middle;whiteSpace=wrap;rounded=0;fontSize=20;fontFamily=Architects Daughter;fontStyle=1;fontColor=#000000;" vertex="1" parent="XSDj66iokUBeNGo2-PE7-2">
          <mxGeometry x="38.120000000000005" y="-8.75" width="120" height="40" as="geometry" />
        </mxCell>
        <mxCell id="XSDj66iokUBeNGo2-PE7-43" value="" style="line;strokeWidth=3;direction=south;html=1;hachureGap=4;fontFamily=Architects Daughter;fontSource=https%3A%2F%2Ffonts.googleapis.com%2Fcss%3Ffamily%3DArchitects%2BDaughter;fontSize=20;strokeColor=#000000;" vertex="1" parent="XSDj66iokUBeNGo2-PE7-2">
          <mxGeometry x="93.12" y="-30" width="10" height="30" as="geometry" />
        </mxCell>
        <mxCell id="XSDj66iokUBeNGo2-PE7-6" value="" style="group;aspect=fixed;" vertex="1" connectable="0" parent="XSDj66iokUBeNGo2-PE7-54">
          <mxGeometry x="150.01" y="240" width="270" height="65.45" as="geometry" />
        </mxCell>
        <mxCell id="XSDj66iokUBeNGo2-PE7-7" value="" style="shape=hexagon;perimeter=hexagonPerimeter2;whiteSpace=wrap;html=1;fixedSize=1;rounded=0;labelBackgroundColor=none;strokeColor=#4f514d;strokeWidth=2;align=center;verticalAlign=middle;fontFamily=Helvetica;fontSize=12;fillColor=#d5e8d4;aspect=fixed;" vertex="1" parent="XSDj66iokUBeNGo2-PE7-6">
          <mxGeometry width="269.98125" height="65.45" as="geometry" />
        </mxCell>
        <mxCell id="XSDj66iokUBeNGo2-PE7-8" value="" style="line;strokeWidth=2;html=1;rounded=0;labelBackgroundColor=none;align=center;verticalAlign=middle;fontFamily=Helvetica;fontSize=12;strokeColor=#252323;aspect=fixed;" vertex="1" parent="XSDj66iokUBeNGo2-PE7-6">
          <mxGeometry y="24.54375" width="269.98125" height="16.3625" as="geometry" />
        </mxCell>
        <mxCell id="XSDj66iokUBeNGo2-PE7-9" value="" style="line;strokeWidth=2;direction=south;html=1;rounded=0;labelBackgroundColor=none;strokeColor=#000000;align=center;verticalAlign=middle;fontFamily=Helvetica;fontSize=12;fontColor=default;fillColor=#d5e8d4;aspect=fixed;" vertex="1" parent="XSDj66iokUBeNGo2-PE7-6">
          <mxGeometry x="171.8181818181818" y="32.725" width="8.18125" height="32.725" as="geometry" />
        </mxCell>
        <mxCell id="XSDj66iokUBeNGo2-PE7-29" value="SumaResta" style="text;strokeColor=none;align=center;fillColor=none;html=1;verticalAlign=middle;whiteSpace=wrap;rounded=0;fontSize=20;fontFamily=Architects Daughter;fontStyle=1;fontColor=#000000;" vertex="1" parent="XSDj66iokUBeNGo2-PE7-6">
          <mxGeometry x="69.99000000000001" width="130" height="30" as="geometry" />
        </mxCell>
        <mxCell id="XSDj66iokUBeNGo2-PE7-31" value="a" style="text;strokeColor=none;align=center;fillColor=none;html=1;verticalAlign=middle;whiteSpace=wrap;rounded=0;fontSize=20;fontFamily=Architects Daughter;fontStyle=1;fontColor=#080808;" vertex="1" parent="XSDj66iokUBeNGo2-PE7-6">
          <mxGeometry x="59.99000000000001" y="30" width="60" height="30" as="geometry" />
        </mxCell>
        <mxCell id="XSDj66iokUBeNGo2-PE7-32" value="b" style="text;strokeColor=none;align=center;fillColor=none;html=1;verticalAlign=middle;whiteSpace=wrap;rounded=0;fontSize=20;fontFamily=Architects Daughter;fontColor=#000000;fontStyle=1" vertex="1" parent="XSDj66iokUBeNGo2-PE7-6">
          <mxGeometry x="189.99" y="32.72000000000003" width="60" height="30" as="geometry" />
        </mxCell>
        <mxCell id="XSDj66iokUBeNGo2-PE7-15" value="" style="shape=trapezoid;perimeter=trapezoidPerimeter;whiteSpace=wrap;html=1;fixedSize=1;rounded=0;labelBackgroundColor=none;strokeColor=#0F140C;strokeWidth=2;align=center;verticalAlign=middle;fontFamily=Helvetica;fontSize=12;fontColor=default;fillColor=#d5e8d4;" vertex="1" parent="XSDj66iokUBeNGo2-PE7-54">
          <mxGeometry x="195" y="340" width="170" height="50" as="geometry" />
        </mxCell>
        <mxCell id="XSDj66iokUBeNGo2-PE7-16" value="" style="shape=trapezoid;perimeter=trapezoidPerimeter;whiteSpace=wrap;html=1;fixedSize=1;rounded=0;labelBackgroundColor=none;strokeColor=#121211;strokeWidth=2;align=center;verticalAlign=middle;fontFamily=Helvetica;fontSize=12;fontColor=default;fillColor=#d5e8d4;direction=west;container=1;" vertex="1" parent="XSDj66iokUBeNGo2-PE7-54">
          <mxGeometry x="205" y="160" width="150" height="40" as="geometry">
            <mxRectangle x="-1020" y="-650" width="50" height="40" as="alternateBounds" />
          </mxGeometry>
        </mxCell>
        <mxCell id="XSDj66iokUBeNGo2-PE7-28" value="a, b" style="text;strokeColor=none;align=center;fillColor=none;html=1;verticalAlign=middle;whiteSpace=wrap;rounded=0;fontSize=20;fontFamily=Architects Daughter;fontStyle=1;fontColor=#000000;" vertex="1" parent="XSDj66iokUBeNGo2-PE7-16">
          <mxGeometry x="5" width="140" height="40" as="geometry" />
        </mxCell>
        <mxCell id="XSDj66iokUBeNGo2-PE7-17" value="" style="strokeWidth=2;html=1;shape=mxgraph.flowchart.start_2;whiteSpace=wrap;rounded=0;labelBackgroundColor=none;strokeColor=#000000;align=center;verticalAlign=middle;fontFamily=Helvetica;fontSize=12;fontColor=default;fillColor=#d5e8d4;" vertex="1" parent="XSDj66iokUBeNGo2-PE7-54">
          <mxGeometry x="255" width="50" height="50" as="geometry" />
        </mxCell>
        <mxCell id="XSDj66iokUBeNGo2-PE7-18" value="" style="strokeWidth=2;html=1;shape=mxgraph.flowchart.start_2;whiteSpace=wrap;rounded=0;labelBackgroundColor=none;strokeColor=#000000;align=center;verticalAlign=middle;fontFamily=Helvetica;fontSize=12;fontColor=default;fillColor=#d5e8d4;" vertex="1" parent="XSDj66iokUBeNGo2-PE7-54">
          <mxGeometry x="252.5" y="420" width="55" height="55" as="geometry" />
        </mxCell>
        <mxCell id="XSDj66iokUBeNGo2-PE7-23" value="=" style="text;strokeColor=none;align=center;fillColor=none;html=1;verticalAlign=middle;whiteSpace=wrap;rounded=0;fontSize=26;fontFamily=Architects Daughter;fontStyle=1;fontColor=#000000;" vertex="1" parent="XSDj66iokUBeNGo2-PE7-54">
          <mxGeometry x="90" y="247.72000000000003" width="69.99" height="50" as="geometry" />
        </mxCell>
        <mxCell id="XSDj66iokUBeNGo2-PE7-24" value="" style="rounded=0;whiteSpace=wrap;html=1;labelBackgroundColor=none;strokeColor=#0f100e;strokeWidth=2;align=center;verticalAlign=middle;fontFamily=Helvetica;fontSize=12;fontColor=default;fillColor=#d5e8d4;" vertex="1" parent="XSDj66iokUBeNGo2-PE7-54">
          <mxGeometry y="247.72000000000003" width="110" height="50" as="geometry" />
        </mxCell>
        <mxCell id="XSDj66iokUBeNGo2-PE7-26" value="I" style="text;strokeColor=none;align=center;fillColor=none;html=1;verticalAlign=middle;whiteSpace=wrap;rounded=0;fontSize=22;fontFamily=Architects Daughter;fontStyle=1;fontColor=#000000;" vertex="1" parent="XSDj66iokUBeNGo2-PE7-54">
          <mxGeometry x="250" y="10" width="60" height="30" as="geometry" />
        </mxCell>
        <mxCell id="XSDj66iokUBeNGo2-PE7-30" value="suma" style="text;strokeColor=none;align=center;fillColor=none;html=1;verticalAlign=middle;whiteSpace=wrap;rounded=0;fontSize=20;fontFamily=Architects Daughter;fontStyle=1;fontColor=#000000;" vertex="1" parent="XSDj66iokUBeNGo2-PE7-54">
          <mxGeometry x="20" y="257.72" width="60" height="30" as="geometry" />
        </mxCell>
        <mxCell id="XSDj66iokUBeNGo2-PE7-33" value="suma, b" style="text;strokeColor=none;align=center;fillColor=none;html=1;verticalAlign=middle;whiteSpace=wrap;rounded=0;fontSize=20;fontFamily=Architects Daughter;fontStyle=1;fontColor=#000000;" vertex="1" parent="XSDj66iokUBeNGo2-PE7-54">
          <mxGeometry x="210" y="340" width="140" height="50" as="geometry" />
        </mxCell>
        <mxCell id="XSDj66iokUBeNGo2-PE7-34" value="F" style="text;strokeColor=none;align=center;fillColor=none;html=1;verticalAlign=middle;whiteSpace=wrap;rounded=0;fontSize=20;fontFamily=Architects Daughter;fontStyle=1;fontColor=#000000;" vertex="1" parent="XSDj66iokUBeNGo2-PE7-54">
          <mxGeometry x="250" y="432.5" width="60" height="30" as="geometry" />
        </mxCell>
        <mxCell id="XSDj66iokUBeNGo2-PE7-44" value="" style="line;strokeWidth=3;direction=south;html=1;hachureGap=4;fontFamily=Architects Daughter;fontSource=https://fonts.googleapis.com/css?family=Architects+Daughter;fontSize=20;strokeColor=#000000;" vertex="1" parent="XSDj66iokUBeNGo2-PE7-54">
          <mxGeometry x="275" y="130" width="10" height="30" as="geometry" />
        </mxCell>
        <mxCell id="XSDj66iokUBeNGo2-PE7-45" value="" style="line;strokeWidth=3;direction=south;html=1;hachureGap=4;fontFamily=Architects Daughter;fontSource=https://fonts.googleapis.com/css?family=Architects+Daughter;fontSize=20;strokeColor=#000000;" vertex="1" parent="XSDj66iokUBeNGo2-PE7-54">
          <mxGeometry x="275" y="200" width="10" height="40" as="geometry" />
        </mxCell>
        <mxCell id="XSDj66iokUBeNGo2-PE7-46" value="" style="line;strokeWidth=3;direction=south;html=1;hachureGap=4;fontFamily=Architects Daughter;fontSource=https://fonts.googleapis.com/css?family=Architects+Daughter;fontSize=20;strokeColor=#000000;" vertex="1" parent="XSDj66iokUBeNGo2-PE7-54">
          <mxGeometry x="275" y="305.45" width="10" height="34.55" as="geometry" />
        </mxCell>
        <mxCell id="XSDj66iokUBeNGo2-PE7-47" value="" style="line;strokeWidth=3;direction=south;html=1;hachureGap=4;fontFamily=Architects Daughter;fontSource=https://fonts.googleapis.com/css?family=Architects+Daughter;fontSize=20;strokeColor=#000000;" vertex="1" parent="XSDj66iokUBeNGo2-PE7-54">
          <mxGeometry x="275" y="390" width="10" height="30" as="geometry" />
        </mxCell>
      </root>
    </mxGraphModel>
  </diagram>
</mxfile>
